<svg xmlns="http://www.w3.org/2000/svg" width="256" height="256" viewBox="0 0 256 256"><rect width="256" height="256" rx="60.16" fill="#F7F8FA"/><g transform="translate(48.64 48.64) rotate(-45)" fill="#101828"><rect x="-15" y="-14.5" width="30" height="6" rx="1.68"/><rect x="-15" y="-3" width="30" height="6" rx="1.68"/><rect x="-15" y="8.5" width="30" height="6" rx="1.68"/></g><g transform="translate(207.36 48.64) rotate(45)" fill="#101828"><rect x="-15" y="-14.5" width="10.5" height="6" rx="1.68"/><rect x="4.5" y="-14.5" width="10.5" height="6" rx="1.68"/><rect x="-15" y="-3" width="30" height="6" rx="1.68"/><rect x="-15" y="8.5" width="10.5" height="6" rx="1.68"/><rect x="4.5" y="8.5" width="10.5" height="6" rx="1.68"/></g><g transform="translate(48.64 207.36) rotate(45)" fill="#101828"><rect x="-15" y="-14.5" width="30" height="6" rx="1.68"/><rect x="-15" y="-3" width="10.5" height="6" rx="1.68"/><rect x="4.5" y="-3" width="10.5" height="6" rx="1.68"/><rect x="-15" y="8.5" width="30" height="6" rx="1.68"/></g><g transform="translate(207.36 207.36) rotate(-45)" fill="#101828"><rect x="-15" y="-14.5" width="10.5" height="6" rx="1.68"/><rect x="4.5" y="-14.5" width="10.5" height="6" rx="1.68"/><rect x="-15" y="-3" width="10.5" height="6" rx="1.68"/><rect x="4.5" y="-3" width="10.5" height="6" rx="1.68"/><rect x="-15" y="8.5" width="10.5" height="6" rx="1.68"/><rect x="4.5" y="8.5" width="10.5" height="6" rx="1.68"/></g><g transform="rotate(-90 128 128)"><circle cx="128" cy="128" r="51.2" fill="#2440B8"/><path d="M 128 76.8 A 51.2 51.2 0 0 1 128 179.2 A 25.6 25.6 0 0 1 128 128 A 25.6 25.6 0 0 0 128 76.8 Z" fill="#E11D3F"/></g></svg>